<svg xmlns="http://www.w3.org/2000/svg" xmlns:xlink="http://www.w3.org/1999/xlink" width="500" zoomAndPan="magnify" viewBox="0 0 375 374.999991" height="500" preserveAspectRatio="xMidYMid meet" version="1.0"><defs><clipPath id="976f8a8857"><path d="M 31 2 L 334 2 L 334 375 L 31 375 Z M 31 2 " clip-rule="nonzero"/></clipPath><clipPath id="b0fc92ca88"><path d="M 12.984375 43.871094 L 308.238281 -0.03125 L 362.179688 362.730469 L 66.925781 406.632812 Z M 12.984375 43.871094 " clip-rule="nonzero"/></clipPath><clipPath id="a55a67073b"><path d="M 12.984375 43.871094 L 308.238281 -0.03125 L 362.179688 362.730469 L 66.925781 406.632812 Z M 12.984375 43.871094 " clip-rule="nonzero"/></clipPath></defs><g clip-path="url(#976f8a8857)"><g clip-path="url(#b0fc92ca88)"><g clip-path="url(#a55a67073b)"><path fill="#f1f1f1" d="M 291.109375 3.734375 C 290.203125 4.03125 289.457031 4.304688 289.421875 4.347656 C 289.386719 4.375 290.074219 4.375 290.914062 4.308594 C 295.117188 4.027344 299.359375 5.335938 301.621094 7.625 C 303.949219 9.964844 305.171875 12.609375 305.757812 16.542969 C 306.660156 22.609375 305.324219 30.222656 301.871094 38.429688 C 300.886719 40.78125 299.003906 44.714844 298.890625 44.632812 C 298.84375 44.597656 298.457031 42.816406 298.015625 40.660156 C 295.472656 28.4375 293.097656 18.609375 291.601562 14.125 C 289.347656 7.390625 287.0625 5.769531 284.371094 9.019531 C 283.101562 10.539062 282.882812 10.855469 281.121094 14.085938 C 279.628906 16.855469 278.601562 18.925781 274.457031 27.5 C 269.339844 38.117188 264.070312 47.851562 259.597656 54.898438 C 258.875 56.035156 258.226562 56.980469 258.167969 56.988281 C 258.109375 56.996094 257.691406 56.371094 257.273438 55.605469 C 256.476562 54.191406 255.523438 53.34375 254.769531 53.453125 C 254.253906 53.53125 253.078125 55 252.671875 56.070312 C 252.480469 56.5625 251.375 59.59375 250.214844 62.816406 C 245.871094 74.816406 245.886719 74.792969 244.773438 76.289062 C 244.222656 77.058594 243.726562 77.679688 243.683594 77.644531 C 243.660156 77.628906 243.933594 76.355469 244.3125 74.824219 C 246.128906 67.566406 246.621094 61.089844 245.796875 55.535156 C 244.921875 49.789062 242.457031 41.125 240.105469 35.496094 C 237.445312 29.1875 234.914062 27.382812 233.542969 30.816406 C 233.332031 31.3125 232 36.074219 230.585938 41.394531 C 221.960938 73.582031 219.03125 82.460938 212.652344 95.871094 C 207.691406 106.304688 206.304688 108.695312 199.835938 117.976562 C 188.207031 134.714844 182.039062 144.257812 178.570312 150.972656 C 174.4375 158.960938 173.050781 162.15625 170.757812 169.042969 C 168.09375 177.113281 165.871094 187.867188 164.046875 201.730469 C 163.417969 206.488281 163.128906 207.925781 162.824219 207.789062 C 162.738281 207.761719 161.820312 206.605469 160.824219 205.21875 C 156.207031 198.9375 151.550781 193.589844 148.332031 190.859375 C 141.085938 184.703125 132.597656 183.542969 123.777344 187.480469 C 118.730469 189.722656 115.121094 192.664062 111.1875 197.753906 C 108.265625 201.5 106.789062 204.507812 106.121094 208.042969 C 105.894531 209.226562 105.621094 209.710938 103.53125 212.667969 C 102.265625 214.472656 100.621094 216.617188 99.910156 217.40625 L 98.625 218.832031 L 97.941406 218.449219 C 97.566406 218.242188 96.757812 217.835938 96.125 217.546875 C 91.976562 215.617188 87.433594 211.730469 84.566406 207.671875 C 82.894531 205.292969 80.929688 201.183594 80.707031 199.558594 L 80.648438 199.023438 L 81.171875 199.550781 C 83.789062 202.171875 87.683594 202.378906 92.113281 200.085938 C 95.589844 198.296875 98.058594 196.132812 100.007812 193.175781 C 103.011719 188.628906 104.972656 184.660156 106.488281 180.03125 C 107.488281 176.972656 108.433594 173.378906 108.269531 173.242188 C 108.203125 173.210938 107.65625 173.597656 107.023438 174.09375 C 104.78125 175.902344 99.636719 179.515625 97.808594 180.574219 C 95.519531 181.90625 94.007812 182.472656 89.769531 183.628906 C 85.941406 184.683594 84.640625 185.179688 83.324219 186.121094 C 82.003906 187.046875 81.113281 187.984375 79.996094 189.605469 L 79.046875 190.980469 L 78.917969 190.230469 C 78.710938 188.847656 77.742188 186.546875 76.664062 184.871094 C 74.183594 180.976562 71.167969 178.515625 65.660156 175.902344 L 64.265625 175.222656 L 65.242188 174.851562 C 67.402344 174.007812 69.980469 170.796875 70.925781 167.765625 C 71.789062 165.011719 72.105469 160.480469 71.742188 156.253906 C 71.574219 154.175781 70.902344 150.882812 70.664062 150.917969 C 70.605469 150.929688 70.207031 151.652344 69.769531 152.507812 C 68.460938 155.144531 66.613281 158.226562 65.617188 159.425781 C 65.105469 160.046875 63.550781 161.570312 62.15625 162.808594 C 59.511719 165.140625 58.871094 166.003906 58.363281 167.898438 C 57.875 169.667969 57.9375 170.75 58.5625 171.96875 C 58.851562 172.550781 59.066406 173.042969 59.007812 173.054688 C 58.710938 173.097656 52.757812 170.347656 50.621094 169.167969 C 48.925781 168.25 45.546875 166.066406 45.410156 165.824219 C 45.359375 165.75 45.726562 165.636719 46.203125 165.566406 C 47.585938 165.359375 48.488281 164.355469 49.175781 162.296875 L 49.730469 160.597656 L 49.347656 158.027344 C 49.078125 156.210938 48.777344 155 48.355469 153.933594 C 47.605469 152.023438 46.40625 149.800781 46.242188 150.046875 C 46.195312 150.132812 46.015625 150.96875 45.871094 151.898438 C 45.4375 154.449219 44.832031 156.214844 43.714844 158.097656 C 42.472656 160.222656 42.328125 160.605469 42.253906 161.992188 L 42.195312 163.109375 L 41.425781 162.296875 C 39.527344 160.277344 37.980469 157.617188 36.527344 153.976562 C 36.230469 153.191406 36.222656 153.273438 36.511719 154.683594 C 37.351562 158.699219 39.441406 162.003906 44.03125 166.613281 C 44.34375 166.933594 44.304688 166.957031 43.433594 167.085938 C 42.78125 167.183594 41.894531 167.601562 40.28125 168.585938 C 38.515625 169.65625 37.679688 170.023438 36.359375 170.382812 C 35.425781 170.621094 34.0625 170.984375 33.320312 171.175781 L 31.996094 171.515625 L 33.523438 172.257812 C 37.03125 173.957031 40.542969 174.707031 43.070312 174.292969 C 45.914062 173.828125 47.828125 172.292969 47.804688 170.496094 C 47.800781 170.054688 47.863281 169.660156 47.921875 169.652344 C 48 169.640625 48.621094 169.992188 49.289062 170.417969 C 50.972656 171.523438 55.980469 174.050781 59.988281 175.835938 C 64.621094 177.875 64.457031 177.738281 62.777344 178.269531 C 61.023438 178.855469 59.851562 179.675781 58.109375 181.570312 C 54.820312 185.167969 53.351562 186.15625 46.285156 189.527344 C 45.925781 189.703125 45.734375 189.894531 45.84375 189.957031 C 46.09375 190.144531 49.660156 190.863281 51.4375 191.105469 C 55.070312 191.617188 59.738281 191.445312 62.445312 190.722656 C 67.480469 189.367188 70.785156 185.867188 70.265625 182.386719 L 70.089844 181.203125 L 70.671875 181.722656 C 72.8125 183.605469 74.84375 186.375 75.875 188.824219 C 76.429688 190.097656 76.710938 191.308594 77.570312 196.148438 C 78.148438 199.335938 78.714844 202.199219 78.839844 202.503906 L 79.0625 203.054688 L 78.296875 202.644531 C 77.875 202.40625 77.015625 202.066406 76.363281 201.902344 C 72.882812 200.945312 70.445312 201.289062 65.851562 203.425781 C 60.265625 206.011719 60.015625 206.089844 55.484375 206.765625 C 53.050781 207.125 50.039062 207.433594 47.953125 207.539062 C 46.042969 207.621094 44.441406 207.738281 44.390625 207.808594 C 44.257812 207.988281 49.027344 211.238281 51.394531 212.582031 C 54.511719 214.363281 57.886719 215.839844 61.386719 216.933594 C 66.628906 218.601562 68.703125 218.796875 72.910156 217.988281 C 75.761719 217.445312 77.257812 216.898438 78.742188 215.847656 C 80.738281 214.460938 81.726562 212.921875 81.972656 210.785156 L 82.128906 209.507812 L 82.84375 210.511719 C 86.070312 215.082031 88.753906 217.492188 94.480469 220.902344 L 96.214844 221.9375 L 95.613281 222.652344 C 95.28125 223.023438 93.832031 224.695312 92.398438 226.34375 C 89.097656 230.125 88.949219 230.753906 91.367188 230.292969 C 92.566406 230.054688 98.082031 227.839844 100.203125 226.738281 C 100.820312 226.402344 101.46875 226.125 101.644531 226.097656 C 102.417969 225.984375 106.367188 230.082031 107.871094 232.585938 C 110.226562 236.457031 111.21875 240.410156 111.027344 245.105469 C 110.945312 247.417969 110.492188 249.546875 109.5 252.523438 C 108.566406 255.367188 108.550781 255.671875 109.425781 256.371094 C 110.96875 257.636719 115.710938 256.484375 117.195312 254.488281 C 118.054688 253.332031 118.050781 252.765625 117.195312 247.015625 C 116.429688 241.996094 115.757812 239.390625 114.347656 236.027344 C 112.679688 232.011719 109.527344 227.410156 106.636719 224.710938 C 106.242188 224.34375 105.964844 224 106 223.957031 C 106.035156 223.910156 107.050781 223.394531 108.234375 222.796875 C 109.421875 222.195312 110.492188 221.652344 110.605469 221.59375 C 110.71875 221.539062 111.738281 222.011719 112.882812 222.628906 C 117.339844 225.117188 120.175781 227.058594 122.527344 229.253906 C 125.089844 231.660156 126.011719 232.835938 127.316406 235.351562 C 128.332031 237.300781 128.878906 238.933594 130.398438 244.648438 C 132.84375 253.878906 135.347656 259.988281 138.523438 264.464844 C 146.300781 275.429688 157.199219 282.878906 176.308594 290.316406 C 186.230469 294.195312 198.753906 296.109375 211.417969 295.722656 C 218.101562 295.496094 224.660156 296.621094 230.71875 299.011719 C 240.621094 302.890625 248.472656 309.984375 258.175781 323.8125 C 266.3125 335.410156 270.320312 343.582031 278.953125 366.273438 C 281.476562 372.90625 281.71875 373.316406 283.523438 373.894531 C 284.585938 374.222656 284.867188 374.21875 286.058594 373.941406 C 290.066406 373.003906 296.300781 368.398438 302.335938 361.90625 C 302.980469 361.226562 303.570312 360.695312 303.65625 360.742188 C 303.84375 360.894531 303.300781 363.097656 302.738281 364.351562 C 301.753906 366.578125 299.144531 368.886719 296.949219 369.496094 C 295.140625 369.984375 296.21875 370.148438 298.730469 369.777344 C 300.730469 369.476562 301.253906 369.320312 302.414062 368.703125 C 304.832031 367.414062 306.226562 365.632812 307.035156 362.765625 C 307.476562 361.242188 307.671875 358.75 307.464844 357.367188 L 307.328125 356.4375 L 310.160156 352.765625 C 311.699219 350.738281 313.835938 347.835938 314.878906 346.285156 C 315.921875 344.738281 316.859375 343.425781 316.957031 343.390625 C 317.214844 343.234375 317.632812 346.707031 317.496094 348.097656 C 317.226562 350.90625 315.839844 353.414062 313.675781 354.929688 C 312.578125 355.71875 312.578125 355.71875 313.273438 355.613281 C 314.203125 355.476562 316.007812 354.703125 317.171875 353.945312 C 319.179688 352.636719 320.726562 349.980469 320.972656 347.402344 C 321.113281 345.90625 320.5625 342.472656 319.894531 340.714844 L 319.367188 339.316406 L 321.53125 335.925781 C 323.945312 332.152344 324.609375 331.0625 325.921875 328.726562 C 326.835938 327.117188 326.832031 327.097656 327.109375 327.601562 C 327.664062 328.609375 328.113281 331.210938 327.957031 332.605469 C 327.757812 334.535156 327.371094 335.480469 326.152344 337.078125 C 325.5625 337.871094 325.167969 338.496094 325.289062 338.476562 C 325.761719 338.40625 328.03125 336.796875 328.855469 335.925781 C 330.011719 334.726562 330.667969 333.4375 330.964844 331.753906 C 331.308594 329.867188 330.796875 327.355469 329.601562 325.03125 L 328.726562 323.382812 L 329.464844 321.816406 C 331.90625 316.730469 333.683594 311.132812 333.945312 307.738281 C 334.066406 306.085938 333.808594 303.941406 333.324219 302.882812 C 332.933594 302.011719 331.839844 301.042969 330.820312 300.710938 C 330.394531 300.574219 328.683594 300.363281 326.988281 300.25 C 310 299.179688 300.792969 297.117188 291.398438 292.292969 C 288.113281 290.621094 279.632812 285.820312 275.945312 283.601562 C 268.675781 279.207031 263.914062 275.191406 252.4375 263.867188 C 245.683594 257.199219 240.917969 252.632812 238.359375 250.390625 C 237.585938 249.695312 236.949219 249.082031 236.9375 249.003906 C 236.925781 248.925781 237.773438 248.636719 238.824219 248.339844 C 244.394531 246.765625 249.753906 243.503906 255.921875 237.902344 L 257.96875 236.039062 L 260.921875 235.480469 C 269.933594 233.777344 275.976562 230.070312 277.4375 225.347656 C 278.242188 222.726562 277.816406 220.40625 276.035156 217.679688 C 275.515625 216.910156 275.058594 216.289062 275.023438 216.335938 C 274.992188 216.378906 275.140625 216.984375 275.34375 217.660156 C 277.023438 223.371094 273.019531 228.429688 264.308594 231.601562 C 262.273438 232.332031 261.59375 232.511719 261.574219 232.253906 C 261.5625 232.171875 262.160156 231.4375 262.890625 230.621094 C 267.371094 225.675781 271.644531 219.445312 277.59375 209.246094 L 278.933594 206.96875 L 281.40625 205.933594 C 288.398438 203.015625 292.507812 199.234375 293.34375 194.925781 C 293.59375 193.617188 293.203125 191.273438 292.496094 189.902344 C 291.984375 188.910156 289.789062 186.265625 289.640625 186.46875 C 289.605469 186.515625 289.847656 187.046875 290.160156 187.664062 C 290.617188 188.566406 290.757812 189.109375 290.875 190.425781 C 291.253906 194.613281 288.503906 198.554688 282.945312 201.847656 C 281.453125 202.714844 281.085938 202.808594 281.382812 202.21875 C 282.679688 199.664062 285.445312 193.902344 286.398438 191.757812 C 287.046875 190.269531 287.628906 189.011719 287.699219 188.941406 C 287.925781 188.683594 289.945312 183.636719 291.316406 179.917969 C 292.277344 177.269531 292.917969 175.863281 293.210938 175.65625 C 293.445312 175.480469 294.789062 174.574219 296.207031 173.636719 C 301.582031 170.070312 304.695312 166.394531 305.621094 162.542969 C 305.871094 161.515625 305.867188 160.929688 305.625 159.308594 C 305.351562 157.449219 305.28125 157.257812 304.398438 155.957031 C 303.570312 154.746094 300.9375 152.269531 300.734375 152.523438 C 300.699219 152.566406 300.96875 153.03125 301.328125 153.523438 C 302.207031 154.808594 302.695312 156.210938 302.863281 158.003906 C 303.164062 161.25 301.210938 165.117188 297.589844 168.523438 C 296.132812 169.890625 294.71875 170.988281 294.582031 170.886719 C 294.515625 170.835938 294.914062 169.304688 295.46875 167.464844 C 297.625 160.316406 299.953125 150.394531 301.203125 143.039062 L 301.734375 139.949219 L 304.234375 137.699219 C 308.191406 134.121094 310.804688 131.007812 312.632812 127.664062 C 316.144531 121.226562 315.582031 115.53125 311.105469 111.957031 C 309.914062 111.003906 306.832031 109.339844 306.359375 109.410156 C 306.257812 109.425781 306.644531 109.832031 307.242188 110.328125 C 309.226562 111.972656 310.566406 114.316406 310.9375 116.808594 C 311.371094 119.734375 310.75 122.632812 308.902344 126.242188 C 307.617188 128.753906 303.109375 134.636719 302.679688 134.335938 C 302.609375 134.265625 302.722656 132.855469 302.941406 131.1875 C 304.207031 120.941406 304.855469 106.644531 304.492188 96.457031 L 304.425781 94.246094 L 306.371094 91.53125 C 313.671875 81.316406 316.667969 72.507812 315.195312 65.578125 C 314.417969 61.855469 312.148438 59.242188 308.546875 57.878906 C 307.175781 57.355469 304.515625 56.882812 303.039062 56.902344 L 302.128906 56.894531 L 303.414062 57.371094 C 305.40625 58.105469 307.964844 60.085938 309.082031 61.738281 C 310.328125 63.613281 310.808594 65.058594 311.054688 67.667969 C 311.523438 72.871094 309.539062 79.507812 305.386719 86.6875 C 304.871094 87.574219 304.390625 88.292969 304.34375 88.238281 C 304.296875 88.203125 304.101562 85.929688 303.914062 83.191406 C 303.3125 74.496094 302.785156 69.726562 301.222656 59.089844 L 299.707031 48.753906 L 300.769531 47.058594 C 306.132812 38.523438 309.578125 29.570312 310.441406 21.90625 C 310.800781 18.882812 310.765625 17.152344 310.320312 14.289062 C 309.816406 11.171875 309.140625 9.375 307.71875 7.425781 C 304.445312 2.945312 297.980469 1.5 291.109375 3.734375 Z M 291.109375 3.734375 " fill-opacity="1" fill-rule="nonzero"/></g></g></g></svg>