<svg xmlns="http://www.w3.org/2000/svg" xmlns:xlink="http://www.w3.org/1999/xlink" width="1920" zoomAndPan="magnify" viewBox="0 0 1440 337.499995" height="450" preserveAspectRatio="xMidYMid meet" version="1.0"><defs><g/><clipPath id="68d8a445b2"><path d="M 3 17.105469 L 501 17.105469 L 501 319.65625 L 3 319.65625 Z M 3 17.105469 " clip-rule="nonzero"/></clipPath><clipPath id="a799763ca2"><path d="M 153 36 L 345 36 L 345 271 L 153 271 Z M 153 36 " clip-rule="nonzero"/></clipPath><clipPath id="7559a17d93"><path d="M 141.996094 62.90625 L 327.921875 35.257812 L 361.847656 263.410156 L 175.921875 291.054688 Z M 141.996094 62.90625 " clip-rule="nonzero"/></clipPath><clipPath id="35ab28a74f"><path d="M 141.996094 62.90625 L 327.921875 35.257812 L 361.847656 263.410156 L 175.921875 291.054688 Z M 141.996094 62.90625 " clip-rule="nonzero"/></clipPath></defs><g clip-path="url(#68d8a445b2)"><path fill="#f1f1f1" d="M 61.109375 17.105469 C 53.363281 17.105469 47.125 23.199219 47.125 30.769531 L 47.125 280.734375 C 47.125 287.933594 46.109375 293.796875 52.671875 294.355469 L 6.714844 294.355469 C 1.273438 294.355469 4.058594 298.585938 4.058594 303.84375 L 4.058594 310.171875 C 4.058594 315.429688 8.433594 319.660156 13.875 319.660156 L 490.011719 319.660156 C 495.449219 319.660156 499.828125 315.429688 499.828125 310.171875 L 499.828125 303.84375 C 499.828125 298.585938 502.609375 294.355469 497.171875 294.355469 L 451.214844 294.355469 C 457.777344 293.796875 456.757812 287.933594 456.757812 280.734375 L 456.757812 30.769531 C 456.757812 23.199219 450.523438 17.105469 442.777344 17.105469 Z M 181.925781 20.421875 C 183.914062 20.421875 185.523438 21.996094 185.523438 23.9375 C 185.523438 25.878906 183.914062 27.453125 181.925781 27.453125 C 179.9375 27.453125 178.324219 25.878906 178.324219 23.9375 C 178.324219 21.996094 179.9375 20.421875 181.925781 20.421875 Z M 60.769531 30.796875 L 443.117188 30.796875 L 443.117188 280.707031 L 60.769531 280.707031 Z M 189.785156 294.398438 L 314.101562 294.398438 C 313.917969 297.046875 312.074219 299.109375 309.808594 299.109375 L 194.078125 299.109375 C 191.8125 299.109375 189.96875 297.046875 189.785156 294.398438 Z M 442.199219 301.882812 C 445.128906 301.882812 447.5 304.179688 447.5 307.007812 C 447.5 309.839844 445.128906 312.132812 442.199219 312.132812 C 439.273438 312.132812 436.898438 309.839844 436.898438 307.007812 C 436.898438 304.179688 439.273438 301.882812 442.199219 301.882812 Z M 458.917969 301.882812 C 461.847656 301.882812 464.21875 304.179688 464.21875 307.007812 C 464.21875 309.839844 461.847656 312.132812 458.917969 312.132812 C 455.992188 312.132812 453.617188 309.839844 453.617188 307.007812 C 453.617188 304.179688 455.992188 301.882812 458.917969 301.882812 Z M 475.640625 301.882812 C 478.566406 301.882812 480.941406 304.179688 480.941406 307.007812 C 480.941406 309.839844 478.566406 312.132812 475.640625 312.132812 C 472.710938 312.132812 470.339844 309.839844 470.339844 307.007812 C 470.339844 304.179688 472.710938 301.882812 475.640625 301.882812 Z M 25.214844 305.277344 L 53.03125 305.277344 C 54.390625 305.277344 55.484375 306.050781 55.484375 307.007812 C 55.484375 307.96875 54.390625 308.738281 53.03125 308.738281 L 25.214844 308.738281 C 23.855469 308.738281 22.757812 307.96875 22.757812 307.007812 C 22.757812 306.050781 23.855469 305.277344 25.214844 305.277344 Z M 25.214844 305.277344 " fill-opacity="1" fill-rule="nonzero"/></g><g clip-path="url(#a799763ca2)"><g clip-path="url(#7559a17d93)"><g clip-path="url(#35ab28a74f)"><path fill="#f1f1f1" d="M 317.140625 37.628906 C 316.566406 37.816406 316.097656 37.988281 316.074219 38.015625 C 316.050781 38.03125 316.484375 38.03125 317.015625 37.988281 C 319.664062 37.8125 322.332031 38.632812 323.757812 40.074219 C 325.226562 41.546875 325.996094 43.210938 326.363281 45.683594 C 326.929688 49.5 326.085938 54.285156 323.914062 59.449219 C 323.292969 60.925781 322.105469 63.402344 322.035156 63.347656 C 322.003906 63.328125 321.761719 62.207031 321.484375 60.851562 C 319.882812 53.164062 318.390625 46.984375 317.449219 44.164062 C 316.027344 39.925781 314.589844 38.910156 312.894531 40.953125 C 312.09375 41.910156 311.957031 42.109375 310.847656 44.140625 C 309.90625 45.882812 309.261719 47.183594 306.648438 52.578125 C 303.425781 59.257812 300.105469 65.378906 297.289062 69.8125 C 296.835938 70.527344 296.425781 71.121094 296.386719 71.125 C 296.351562 71.132812 296.089844 70.738281 295.828125 70.257812 C 295.324219 69.367188 294.722656 68.832031 294.25 68.902344 C 293.925781 68.953125 293.183594 69.875 292.925781 70.546875 C 292.808594 70.859375 292.109375 72.765625 291.378906 74.792969 C 288.640625 82.339844 288.652344 82.324219 287.953125 83.265625 C 287.605469 83.75 287.292969 84.140625 287.265625 84.121094 C 287.25 84.109375 287.421875 83.308594 287.664062 82.34375 C 288.804688 77.78125 289.117188 73.707031 288.597656 70.214844 C 288.046875 66.597656 286.496094 61.152344 285.015625 57.609375 C 283.34375 53.640625 281.746094 52.507812 280.882812 54.667969 C 280.753906 54.980469 279.910156 57.976562 279.019531 61.324219 C 273.585938 81.566406 271.742188 87.152344 267.722656 95.585938 C 264.59375 102.148438 263.722656 103.652344 259.648438 109.492188 C 252.324219 120.019531 248.4375 126.019531 246.25 130.246094 C 243.648438 135.269531 242.777344 137.28125 241.332031 141.609375 C 239.652344 146.6875 238.25 153.453125 237.101562 162.171875 C 236.707031 165.164062 236.519531 166.070312 236.332031 165.984375 C 236.277344 165.964844 235.699219 165.238281 235.070312 164.367188 C 232.164062 160.414062 229.230469 157.054688 227.207031 155.335938 C 222.644531 151.464844 217.300781 150.734375 211.746094 153.214844 C 208.566406 154.625 206.292969 156.476562 203.8125 159.675781 C 201.972656 162.035156 201.042969 163.925781 200.625 166.148438 C 200.480469 166.894531 200.308594 167.199219 198.992188 169.058594 C 198.195312 170.191406 197.160156 171.542969 196.710938 172.039062 L 195.902344 172.933594 L 195.46875 172.695312 C 195.234375 172.5625 194.726562 172.308594 194.328125 172.128906 C 191.714844 170.914062 188.855469 168.46875 187.046875 165.917969 C 186 164.421875 184.761719 161.835938 184.621094 160.816406 L 184.582031 160.480469 L 184.914062 160.8125 C 186.558594 162.457031 189.011719 162.589844 191.804688 161.144531 C 193.992188 160.019531 195.546875 158.65625 196.773438 156.796875 C 198.667969 153.9375 199.902344 151.441406 200.859375 148.53125 C 201.488281 146.609375 202.082031 144.347656 201.980469 144.261719 C 201.9375 144.242188 201.59375 144.484375 201.195312 144.796875 C 199.785156 145.933594 196.542969 148.207031 195.394531 148.875 C 193.949219 149.710938 192.996094 150.066406 190.328125 150.796875 C 187.917969 151.457031 187.097656 151.769531 186.269531 152.363281 C 185.4375 152.945312 184.875 153.539062 184.175781 154.554688 L 183.578125 155.421875 L 183.492188 154.949219 C 183.363281 154.078125 182.753906 152.632812 182.074219 151.578125 C 180.515625 149.128906 178.617188 147.582031 175.148438 145.9375 L 174.269531 145.511719 L 174.882812 145.277344 C 176.246094 144.746094 177.867188 142.726562 178.464844 140.820312 C 179.007812 139.089844 179.207031 136.238281 178.980469 133.582031 C 178.875 132.273438 178.453125 130.203125 178.300781 130.226562 C 178.265625 130.230469 178.015625 130.6875 177.738281 131.222656 C 176.914062 132.882812 175.75 134.824219 175.125 135.578125 C 174.800781 135.96875 173.820312 136.925781 172.941406 137.703125 C 171.277344 139.171875 170.871094 139.714844 170.550781 140.90625 C 170.246094 142.019531 170.285156 142.699219 170.679688 143.464844 C 170.859375 143.832031 170.996094 144.140625 170.957031 144.148438 C 170.773438 144.175781 167.023438 142.445312 165.679688 141.707031 C 164.613281 141.128906 162.484375 139.753906 162.398438 139.601562 C 162.363281 139.558594 162.597656 139.484375 162.894531 139.441406 C 163.769531 139.308594 164.335938 138.679688 164.769531 137.382812 L 165.117188 136.3125 L 164.878906 134.699219 C 164.707031 133.554688 164.519531 132.796875 164.253906 132.125 C 163.78125 130.921875 163.027344 129.523438 162.921875 129.679688 C 162.890625 129.734375 162.777344 130.257812 162.6875 130.84375 C 162.417969 132.449219 162.035156 133.558594 161.332031 134.742188 C 160.546875 136.078125 160.457031 136.320312 160.410156 137.191406 L 160.375 137.898438 L 159.890625 137.382812 C 158.695312 136.113281 157.71875 134.441406 156.804688 132.152344 C 156.617188 131.660156 156.613281 131.710938 156.796875 132.597656 C 157.324219 135.125 158.640625 137.203125 161.527344 140.101562 C 161.722656 140.300781 161.699219 140.316406 161.152344 140.398438 C 160.742188 140.457031 160.179688 140.71875 159.164062 141.339844 C 158.054688 142.015625 157.53125 142.246094 156.695312 142.46875 C 156.109375 142.621094 155.25 142.851562 154.785156 142.96875 L 153.949219 143.183594 L 154.910156 143.652344 C 157.121094 144.71875 159.332031 145.191406 160.921875 144.929688 C 162.714844 144.636719 163.917969 143.671875 163.90625 142.542969 C 163.902344 142.261719 163.941406 142.015625 163.976562 142.011719 C 164.027344 142.003906 164.417969 142.222656 164.839844 142.492188 C 165.898438 143.183594 169.050781 144.773438 171.574219 145.898438 C 174.492188 147.179688 174.390625 147.09375 173.332031 147.429688 C 172.226562 147.796875 171.488281 148.3125 170.390625 149.503906 C 168.320312 151.769531 167.394531 152.390625 162.945312 154.511719 C 162.71875 154.621094 162.597656 154.742188 162.667969 154.78125 C 162.824219 154.898438 165.070312 155.351562 166.1875 155.503906 C 168.476562 155.824219 171.417969 155.714844 173.121094 155.261719 C 176.292969 154.40625 178.371094 152.203125 178.046875 150.015625 L 177.9375 149.273438 L 178.304688 149.597656 C 179.652344 150.78125 180.929688 152.523438 181.578125 154.066406 C 181.925781 154.863281 182.105469 155.625 182.644531 158.671875 C 183.007812 160.675781 183.363281 162.476562 183.445312 162.667969 L 183.585938 163.015625 L 183.101562 162.757812 C 182.835938 162.605469 182.296875 162.394531 181.886719 162.289062 C 179.695312 161.6875 178.160156 161.902344 175.261719 163.25 C 171.746094 164.878906 171.589844 164.925781 168.734375 165.351562 C 167.203125 165.578125 165.308594 165.769531 163.992188 165.839844 C 162.789062 165.890625 161.78125 165.964844 161.75 166.007812 C 161.664062 166.121094 164.671875 168.164062 166.160156 169.011719 C 168.121094 170.128906 170.246094 171.058594 172.449219 171.746094 C 175.753906 172.792969 177.058594 172.917969 179.707031 172.40625 C 181.503906 172.066406 182.445312 171.722656 183.378906 171.0625 C 184.640625 170.1875 185.257812 169.21875 185.417969 167.875 L 185.511719 167.074219 L 185.964844 167.703125 C 187.996094 170.578125 189.6875 172.09375 193.292969 174.238281 L 194.382812 174.886719 L 194.003906 175.339844 C 193.796875 175.574219 192.882812 176.625 191.980469 177.660156 C 189.898438 180.039062 189.804688 180.433594 191.328125 180.144531 C 192.085938 179.992188 195.558594 178.601562 196.894531 177.90625 C 197.285156 177.695312 197.691406 177.523438 197.804688 177.503906 C 198.289062 177.433594 200.773438 180.011719 201.722656 181.585938 C 203.203125 184.019531 203.828125 186.503906 203.707031 189.457031 C 203.65625 190.914062 203.371094 192.25 202.746094 194.121094 C 202.15625 195.914062 202.148438 196.105469 202.699219 196.542969 C 203.667969 197.339844 206.65625 196.617188 207.589844 195.359375 C 208.132812 194.628906 208.128906 194.273438 207.59375 190.660156 C 207.109375 187.503906 206.6875 185.863281 205.800781 183.746094 C 204.75 181.222656 202.765625 178.328125 200.945312 176.632812 C 200.695312 176.402344 200.523438 176.1875 200.546875 176.15625 C 200.566406 176.128906 201.207031 175.804688 201.953125 175.425781 C 202.699219 175.050781 203.375 174.707031 203.445312 174.671875 C 203.515625 174.636719 204.160156 174.933594 204.878906 175.320312 C 207.683594 176.886719 209.472656 178.105469 210.949219 179.488281 C 212.5625 181 213.144531 181.742188 213.964844 183.320312 C 214.605469 184.546875 214.953125 185.574219 215.90625 189.167969 C 217.445312 194.972656 219.023438 198.816406 221.019531 201.632812 C 225.917969 208.527344 232.78125 213.210938 244.8125 217.886719 C 251.058594 220.324219 258.945312 221.527344 266.921875 221.28125 C 271.128906 221.136719 275.257812 221.84375 279.074219 223.347656 C 285.3125 225.789062 290.253906 230.25 296.363281 238.945312 C 301.484375 246.238281 304.007812 251.375 309.441406 265.644531 C 311.027344 269.816406 311.183594 270.074219 312.320312 270.4375 C 312.984375 270.644531 313.164062 270.644531 313.914062 270.46875 C 316.4375 269.878906 320.363281 266.980469 324.164062 262.898438 C 324.574219 262.46875 324.941406 262.132812 325 262.164062 C 325.113281 262.261719 324.773438 263.644531 324.417969 264.433594 C 323.800781 265.835938 322.15625 267.285156 320.773438 267.671875 C 319.632812 267.980469 320.3125 268.082031 321.894531 267.847656 C 323.152344 267.660156 323.480469 267.558594 324.214844 267.171875 C 325.738281 266.359375 326.613281 265.238281 327.125 263.4375 C 327.402344 262.480469 327.527344 260.910156 327.394531 260.042969 L 327.308594 259.457031 L 329.09375 257.148438 C 330.0625 255.871094 331.410156 254.046875 332.066406 253.070312 C 332.722656 252.097656 333.316406 251.273438 333.375 251.25 C 333.539062 251.148438 333.800781 253.335938 333.714844 254.210938 C 333.542969 255.976562 332.667969 257.554688 331.308594 258.507812 C 330.617188 259.003906 330.617188 259.003906 331.054688 258.9375 C 331.640625 258.851562 332.777344 258.363281 333.507812 257.886719 C 334.773438 257.0625 335.75 255.394531 335.902344 253.769531 C 335.992188 252.832031 335.644531 250.671875 335.226562 249.566406 L 334.890625 248.6875 L 336.257812 246.554688 C 337.777344 244.179688 338.195312 243.496094 339.023438 242.027344 C 339.597656 241.015625 339.597656 241 339.769531 241.316406 C 340.121094 241.953125 340.402344 243.585938 340.300781 244.464844 C 340.175781 245.679688 339.933594 246.273438 339.167969 247.277344 C 338.796875 247.777344 338.546875 248.167969 338.621094 248.160156 C 338.921875 248.113281 340.351562 247.101562 340.867188 246.554688 C 341.597656 245.796875 342.011719 244.988281 342.199219 243.929688 C 342.414062 242.742188 342.089844 241.164062 341.339844 239.699219 L 340.789062 238.664062 L 341.253906 237.679688 C 342.792969 234.480469 343.910156 230.960938 344.078125 228.824219 C 344.152344 227.785156 343.992188 226.4375 343.6875 225.769531 C 343.441406 225.222656 342.75 224.613281 342.109375 224.40625 C 341.839844 224.316406 340.765625 224.1875 339.695312 224.117188 C 329 223.445312 323.199219 222.148438 317.285156 219.113281 C 315.21875 218.0625 309.878906 215.046875 307.554688 213.652344 C 302.980469 210.890625 299.980469 208.363281 292.757812 201.242188 C 288.5 197.046875 285.503906 194.179688 283.890625 192.765625 C 283.40625 192.332031 283.003906 191.945312 282.996094 191.894531 C 282.988281 191.847656 283.523438 191.664062 284.183594 191.476562 C 287.691406 190.484375 291.066406 188.433594 294.953125 184.910156 L 296.242188 183.738281 L 298.101562 183.386719 C 303.777344 182.3125 307.582031 179.984375 308.503906 177.011719 C 309.007812 175.363281 308.742188 173.902344 307.621094 172.191406 C 307.292969 171.703125 307.007812 171.316406 306.984375 171.34375 C 306.964844 171.371094 307.058594 171.753906 307.183594 172.179688 C 308.242188 175.769531 305.722656 178.949219 300.234375 180.949219 C 298.953125 181.40625 298.523438 181.519531 298.511719 181.355469 C 298.503906 181.308594 298.882812 180.84375 299.339844 180.332031 C 302.164062 177.21875 304.855469 173.300781 308.601562 166.886719 L 309.445312 165.453125 L 311.003906 164.800781 C 315.40625 162.964844 317.996094 160.585938 318.523438 157.878906 C 318.679688 157.054688 318.4375 155.578125 317.988281 154.71875 C 317.667969 154.09375 316.285156 152.429688 316.191406 152.558594 C 316.167969 152.585938 316.320312 152.921875 316.519531 153.308594 C 316.808594 153.878906 316.898438 154.21875 316.96875 155.046875 C 317.207031 157.679688 315.472656 160.160156 311.972656 162.230469 C 311.035156 162.777344 310.800781 162.835938 310.988281 162.464844 C 311.808594 160.859375 313.546875 157.234375 314.152344 155.886719 C 314.558594 154.949219 314.925781 154.15625 314.96875 154.113281 C 315.113281 153.953125 316.382812 150.777344 317.246094 148.4375 C 317.851562 146.773438 318.257812 145.886719 318.441406 145.757812 C 318.589844 145.648438 319.433594 145.078125 320.328125 144.488281 C 323.714844 142.242188 325.675781 139.929688 326.257812 137.507812 C 326.417969 136.859375 326.414062 136.492188 326.261719 135.472656 C 326.089844 134.304688 326.042969 134.183594 325.488281 133.367188 C 324.96875 132.605469 323.3125 131.046875 323.179688 131.207031 C 323.160156 131.234375 323.332031 131.527344 323.554688 131.835938 C 324.109375 132.644531 324.417969 133.523438 324.523438 134.652344 C 324.710938 136.695312 323.480469 139.125 321.199219 141.269531 C 320.285156 142.128906 319.394531 142.820312 319.308594 142.757812 C 319.265625 142.726562 319.515625 141.761719 319.867188 140.605469 C 321.222656 136.109375 322.691406 129.871094 323.480469 125.242188 L 323.816406 123.300781 L 325.386719 121.882812 C 327.878906 119.632812 329.527344 117.671875 330.679688 115.570312 C 332.890625 111.519531 332.535156 107.941406 329.71875 105.691406 C 328.964844 105.089844 327.027344 104.046875 326.730469 104.089844 C 326.667969 104.097656 326.910156 104.355469 327.285156 104.667969 C 328.535156 105.703125 329.378906 107.175781 329.613281 108.742188 C 329.886719 110.582031 329.492188 112.40625 328.328125 114.675781 C 327.519531 116.257812 324.679688 119.957031 324.410156 119.769531 C 324.367188 119.722656 324.4375 118.835938 324.574219 117.789062 C 325.375 111.34375 325.78125 102.351562 325.554688 95.945312 L 325.515625 94.550781 L 326.738281 92.847656 C 331.335938 86.421875 333.226562 80.878906 332.296875 76.519531 C 331.808594 74.179688 330.378906 72.539062 328.113281 71.679688 C 327.25 71.351562 325.574219 71.054688 324.644531 71.066406 L 324.074219 71.0625 L 324.882812 71.359375 C 326.132812 71.824219 327.746094 73.070312 328.449219 74.109375 C 329.234375 75.285156 329.535156 76.195312 329.691406 77.835938 C 329.988281 81.109375 328.734375 85.28125 326.121094 89.800781 C 325.792969 90.355469 325.492188 90.808594 325.460938 90.773438 C 325.433594 90.753906 325.308594 89.324219 325.195312 87.601562 C 324.8125 82.132812 324.484375 79.132812 323.5 72.441406 L 322.546875 65.941406 L 323.214844 64.875 C 326.597656 59.507812 328.765625 53.875 329.308594 49.054688 C 329.535156 47.15625 329.515625 46.066406 329.234375 44.265625 C 328.917969 42.304688 328.492188 41.175781 327.597656 39.949219 C 325.535156 37.128906 321.464844 36.222656 317.140625 37.628906 Z M 317.140625 37.628906 " fill-opacity="1" fill-rule="nonzero"/></g></g></g><g fill="#f1f1f1" fill-opacity="1"><g transform="translate(591.19372, 257.844716)"><g><path d="M 71.734375 -157.0625 C 91.929688 -157.0625 110.125 -151.710938 126.3125 -141.015625 L 115.40625 -117.84375 C 99.507812 -127.5 84.285156 -132.328125 69.734375 -132.328125 C 61.859375 -132.328125 55.65625 -130.914062 51.125 -128.09375 C 46.59375 -125.269531 44.328125 -121.257812 44.328125 -116.0625 C 44.328125 -110.863281 46.40625 -106.445312 50.5625 -102.8125 C 54.726562 -99.175781 59.925781 -96.503906 66.15625 -94.796875 C 72.394531 -93.085938 79.15625 -90.929688 86.4375 -88.328125 C 93.71875 -85.734375 100.472656 -82.988281 106.703125 -80.09375 C 112.941406 -77.195312 118.101562 -72.664062 122.1875 -66.5 C 126.28125 -60.332031 128.328125 -52.867188 128.328125 -44.109375 C 128.328125 -30.441406 122.867188 -19.523438 111.953125 -11.359375 C 101.035156 -3.191406 86.882812 0.890625 69.5 0.890625 C 57.625 0.890625 46.113281 -1.332031 34.96875 -5.78125 C 23.832031 -10.238281 14.109375 -16.257812 5.796875 -23.84375 L 17.15625 -46.5625 C 25.03125 -39.28125 33.679688 -33.671875 43.109375 -29.734375 C 52.535156 -25.804688 61.484375 -23.84375 69.953125 -23.84375 C 79.160156 -23.84375 86.328125 -25.507812 91.453125 -28.84375 C 96.578125 -32.1875 99.140625 -36.832031 99.140625 -42.78125 C 99.140625 -48.125 97.054688 -52.613281 92.890625 -56.25 C 88.734375 -59.882812 83.535156 -62.554688 77.296875 -64.265625 C 71.066406 -65.972656 64.3125 -68.050781 57.03125 -70.5 C 49.75 -72.957031 42.988281 -75.554688 36.75 -78.296875 C 30.519531 -81.046875 25.320312 -85.46875 21.15625 -91.5625 C 17 -97.65625 14.921875 -105.007812 14.921875 -113.625 C 14.921875 -126.84375 20.117188 -137.382812 30.515625 -145.25 C 40.910156 -153.125 54.648438 -157.0625 71.734375 -157.0625 Z M 71.734375 -157.0625 "/></g></g></g><g fill="#f1f1f1" fill-opacity="1"><g transform="translate(767.636001, 257.844716)"><g><path d="M 121.1875 -35.203125 L 42.546875 -35.203125 L 27.625 0 L 0.21875 0 L 69.0625 -155.953125 L 96.015625 -155.953125 L 164.1875 0 L 136.125 0 Z M 111.171875 -58.59375 L 81.765625 -127.875 L 52.359375 -58.59375 Z M 111.171875 -58.59375 "/></g></g></g><g fill="#f1f1f1" fill-opacity="1"><g transform="translate(969.920847, 257.844716)"><g><path d="M 124.984375 -132.328125 L 46.78125 -132.328125 L 46.78125 -87.328125 L 117.625 -87.328125 L 117.625 -63.9375 L 46.78125 -63.9375 L 46.78125 0 L 20.5 0 L 20.5 -155.953125 L 125.203125 -155.953125 Z M 124.984375 -132.328125 "/></g></g></g><g fill="#f1f1f1" fill-opacity="1"><g transform="translate(1135.892431, 257.844716)"><g><path d="M 46.78125 0 L 20.5 0 L 20.5 -155.953125 L 46.78125 -155.953125 Z M 46.78125 0 "/></g></g></g><g fill="#f1f1f1" fill-opacity="1"><g transform="translate(1241.044928, 257.844716)"><g><path d="M 155.71875 0 L 129.875 0 L 46.78125 -111.84375 L 46.78125 0 L 20.5 0 L 20.5 -155.953125 L 46.34375 -155.953125 L 129.875 -43.890625 L 129.875 -155.953125 L 155.71875 -155.953125 Z M 155.71875 0 "/></g></g></g></svg>